PathFileType	4	(x/y/z)	S09_M20_T05
DataRate	CameraRate	NumFrames	NumMarkers	Units	OrigDataRate	OrigDataStartFrame	OrigNumFrames
240	240	11	51	mm	240	508	580
Frame#	Time	Sternum			R.Acromium			L.Acromium			Top.Head			R.ASIS			L.ASIS			R.PSIS			L.PSIS			R.Great.Tro			L.Great.Tro			R.Iliac.Crest			L.Iliac.Crest			V.Sacral			R.Thigh.Upper.Post			R.Thigh.Lower.Ant			R.Thigh.Lower.Post			R.Thigh.Upper.Ant			R.Knee.Lat			R.Knee.Med			R.Shank.Upper.Post			R.Shank.Lower.Ant			R.Shank.Lower.Post			R.Shank.Upper.Ant			R.Ankle.Lat			R.Ankle.Med			R.Heel.Upper			R.Heel.Med			R.Heel.Lat			R.Toe.Lat			R.Toe.Med			R.Toe.Tip			L.Thigh.Upper.Post			L.Thigh.Lower.Ant			L.Thigh.Lower.Post			L.Thigh.Upper.Ant			L.Knee.Lat			L.Knee.Med			L.Shank.Upper.Post			L.Shank.Lower.Ant			L.Shank.Lower.Post			L.Shank.Upper.Ant			L.Ankle.Lat			L.Ankle.Med			L.Heel.Upper			L.Heel.Med			L.Heel.Lat			L.Toe.Lat			L.Toe.Med			L.Toe.Tip			Cervical.Spine			Back			
		X1	Y1	Z1	X2	Y2	Z2	X3	Y3	Z3	X4	Y4	Z4	X5	Y5	Z5	X6	Y6	Z6	X7	Y7	Z7	X8	Y8	Z8	X9	Y9	Z9	X10	Y10	Z10	X11	Y11	Z11	X12	Y12	Z12	X13	Y13	Z13	X14	Y14	Z14	X15	Y15	Z15	X16	Y16	Z16	X17	Y17	Z17	X18	Y18	Z18	X19	Y19	Z19	X20	Y20	Z20	X21	Y21	Z21	X22	Y22	Z22	X23	Y23	Z23	X24	Y24	Z24	X25	Y25	Z25	X26	Y26	Z26	X27	Y27	Z27	X28	Y28	Z28	X29	Y29	Z29	X30	Y30	Z30	X31	Y31	Z31	X32	Y32	Z32	X33	Y33	Z33	X34	Y34	Z34	X35	Y35	Z35	X36	Y36	Z36	X37	Y37	Z37	X38	Y38	Z38	X39	Y39	Z39	X40	Y40	Z40	X41	Y41	Z41	X42	Y42	Z42	X43	Y43	Z43	X44	Y44	Z44	X45	Y45	Z45	X46	Y46	Z46	X47	Y47	Z47	X48	Y48	Z48	X49	Y49	Z49	X50	Y50	Z50	X51	Y51	Z51	

508	2.1125	1968.1	1145.3	282.67	1832.2	1387.1	426.18	1841.3	1391.1	123.4	1828.6	1690.5	266.05	1941.9	978.12	380.13	1913.2	980.94	132.63	1712.8	999.96	327.81	1712.1	1013.2	239.3	1874	886.97	460.08	1823.4	897.84	74.479	1850	1053	437.48	1803.9	1079.2	110.19	1690.6	973.81	278.78	1979.8	658.57	437.05	2085.1	604.45	386.32	2014.8	574.73	406.87	2045.1	680.72	415.48	2099.5	531.54	380.98	2087.1	515.38	259.25	2130.7	347.55	394.93	2221	334.9	382.94	2172.1	282.87	382.92	2176.9	393.51	394.35	2305	139.2	364.83	2322.9	175.94	282.62	2275.5	84.068	305.13	2307.5	73.832	275.57	2298.7	59.536	337.54	2418.2	156.26	406.3	2446.1	211.98	312.29	2463	249.31	362.88	1695.3	667.82	147.2	1746.2	550.58	143.81	1685.3	579.65	168.26	1756.2	636.95	119.14	1704.6	479.41	160.85	1741.6	489.38	288.61	1602.1	380.6	158.39	1616.4	272.55	177.9	1566.8	313.18	172.05	1650	342.21	164.1	1488.7	132.42	205.96	1499.9	126.27	299.48	1401.7	114.79	260.48	1408.1	87.785	292.36	1394.9	87.159	231.89	1560.3	43.124	175.08	1600.9	39.745	282.03	1653.2	41.896	221.93	1752.2	1441.5	282.05	1706.1	1173	268.43
509	2.1167	1974	1144.5	282.93	1838.3	1386.3	426.68	1847.3	1390.4	123.91	1834.2	1689.7	266.55	1948.6	977.74	380.15	1918.9	980.12	132.71	1719.2	999.21	328.54	1718.1	1012.4	240.04	1881	886.61	460.37	1828.5	897.08	74.902	1856.5	1052.5	437.79	1809.5	1078.3	110.63	1696.8	973.06	279.66	1987.3	658.28	436.87	2092.6	604.58	385.7	2022.5	574.59	406.51	2052.5	680.69	415.13	2107.1	531.49	380.3	2094.7	515.5	258.74	2136.7	347.04	394.5	2226.8	333.33	382.08	2177.3	281.87	382.57	2183.4	392.45	393.53	2308.4	136.8	364.18	2326.4	173.13	281.79	2278.4	81.618	304.65	2310.4	71.094	275.1	2301.5	57.067	337.14	2421.7	153.31	405.23	2449.7	208.6	311.23	2466.8	246.01	361.66	1700.2	667.45	147.71	1750.6	550.1	144.08	1690.1	579.27	168.66	1761	636.42	119.42	1709	479	161.02	1746.3	488.69	288.72	1605.8	381.1	158.5	1619.1	272.93	177.96	1569.8	314.04	172.04	1653.6	342.18	164.43	1490.2	133.95	205.88	1501.3	127.69	299.36	1403.1	117.21	260.32	1409.2	90.233	292.3	1395.9	89.63	231.82	1560.7	43.401	175.03	1601.2	39.95	282.04	1653.4	41.78	221.94	1758.1	1440.8	282.53	1712.1	1172.3	268.82
510	2.1208	1980.1	1143.8	283.21	1844.3	1385.5	427.19	1853.3	1389.8	124.42	1839.9	1689	267.05	1955.3	977.36	380.16	1924.6	979.31	132.79	1725.6	998.46	329.29	1724.3	1011.6	240.81	1888.2	886.26	460.67	1833.7	896.33	75.338	1863	1052	438.1	1815.2	1077.5	111.09	1703.1	972.3	280.57	1994.9	657.98	436.68	2100.2	604.67	385.09	2030.3	574.43	406.13	2059.9	680.62	414.78	2114.7	531.39	379.61	2102.3	515.59	258.23	2142.6	346.47	394.07	2232.5	331.66	381.21	2182.3	280.81	382.22	2189.9	391.31	392.7	2311.6	134.3	363.55	2329.6	170.18	280.96	2281.1	79.09	304.21	2313	68.25	274.68	2304.1	54.515	336.78	2424.9	150.21	404.17	2453.2	205.03	310.19	2470.5	242.52	360.43	1705.2	667.08	148.22	1755.1	549.63	144.32	1694.9	578.88	169.06	1765.8	635.9	119.69	1713.5	478.59	161.19	1751.1	488	288.81	1609.6	381.63	158.6	1621.9	273.33	178	1572.9	314.94	172.03	1657.3	342.17	164.73	1491.7	135.54	205.8	1502.8	129.15	299.24	1404.5	119.73	260.17	1410.3	92.779	292.25	1397	92.201	231.75	1561	43.701	174.98	1601.6	40.162	282.05	1653.7	41.673	221.94	1764	1440.1	283.03	1718.1	1171.5	269.22
511	2.125	1986.2	1143.1	283.5	1850.4	1384.8	427.71	1859.3	1389.1	124.95	1845.5	1688.3	267.56	1962.1	976.99	380.17	1930.3	978.52	132.88	1732.1	997.71	330.07	1730.4	1010.9	241.6	1895.4	885.93	460.97	1839	895.6	75.786	1869.6	1051.5	438.43	1820.9	1076.7	111.57	1709.5	971.54	281.5	2002.4	657.65	436.49	2107.8	604.73	384.5	2038	574.24	405.73	2067.3	680.52	414.44	2122.2	531.23	378.94	2109.8	515.63	257.73	2148.4	345.86	393.62	2238	329.91	380.35	2187.2	279.69	381.87	2196.2	390.1	391.87	2314.6	131.71	362.95	2332.6	167.12	280.15	2283.6	76.512	303.8	2315.3	65.329	274.29	2306.4	51.905	336.47	2427.9	146.98	403.12	2456.4	201.29	309.14	2473.9	238.88	359.19	1710.3	666.71	148.73	1759.7	549.17	144.55	1699.8	578.49	169.45	1770.7	635.39	119.94	1718.1	478.18	161.34	1756	487.3	288.88	1613.5	382.19	158.7	1624.9	273.77	178.03	1576.1	315.87	172.02	1661.1	342.19	165.01	1493.3	137.2	205.72	1504.4	130.67	299.11	1406	122.34	260.03	1411.5	95.421	292.21	1398.2	94.874	231.69	1561.5	44.025	174.92	1602	40.378	282.07	1653.9	41.575	221.94	1769.9	1439.3	283.55	1724.2	1170.8	269.63
512	2.1292	1992.3	1142.4	283.8	1856.5	1384.1	428.24	1865.3	1388.5	125.5	1851.2	1687.5	268.08	1968.9	976.64	380.16	1936.2	977.74	132.96	1738.7	996.97	330.87	1736.7	1010.1	242.42	1902.7	885.6	461.28	1844.3	894.89	76.245	1876.3	1051	438.76	1826.6	1075.8	112.05	1715.9	970.79	282.46	2010	657.3	436.28	2115.3	604.73	383.92	2045.6	574.02	405.33	2074.7	680.38	414.1	2129.8	531	378.27	2117.4	515.62	257.24	2154.1	345.18	393.17	2243.4	328.07	379.48	2192	278.5	381.52	2202.5	388.8	391.03	2317.3	129.04	362.35	2335.4	163.97	279.34	2285.8	73.913	303.41	2317.4	62.359	273.93	2308.4	49.267	336.18	2430.7	143.65	402.08	2459.5	197.4	308.11	2477.3	235.1	357.96	1715.5	666.34	149.24	1764.4	548.71	144.74	1704.8	578.1	169.84	1775.7	634.88	120.16	1722.7	477.78	161.48	1761.1	486.59	288.92	1617.5	382.77	158.79	1627.9	274.25	178.04	1579.3	316.85	172.01	1665	342.22	165.26	1495	138.9	205.65	1506.1	132.25	298.99	1407.6	125.05	259.9	1412.8	98.158	292.18	1399.4	97.647	231.64	1561.9	44.372	174.87	1602.4	40.595	282.08	1654.2	41.486	221.94	1775.9	1438.6	284.08	1730.3	1170	270.05
513	2.1333	1998.5	1141.8	284.11	1862.6	1383.3	428.77	1871.3	1387.9	126.05	1856.9	1686.8	268.6	1975.8	976.28	380.15	1942	976.98	133.04	1745.4	996.21	331.7	1743	1009.3	243.27	1910.1	885.28	461.58	1849.6	894.21	76.714	1883.1	1050.6	439.1	1832.4	1075	112.56	1722.4	970.02	283.45	2017.5	656.92	436.07	2122.9	604.66	383.36	2053.3	573.76	404.91	2082.2	680.17	413.77	2137.2	530.7	377.63	2124.9	515.55	256.76	2159.7	344.44	392.7	2248.7	326.16	378.62	2196.6	277.26	381.16	2208.6	387.44	390.2	2319.9	126.32	361.77	2338	160.74	278.53	2287.8	71.324	303.05	2319.3	59.369	273.6	2310.2	46.628	335.92	2433.4	140.23	401.06	2462.5	193.39	307.08	2480.4	231.2	356.71	1720.7	665.98	149.75	1769.2	548.27	144.91	1710	577.71	170.23	1780.8	634.39	120.37	1727.5	477.39	161.6	1766.3	485.86	288.94	1621.6	383.38	158.88	1630.9	274.75	178.03	1582.7	317.86	172	1668.9	342.29	165.48	1496.8	140.67	205.58	1507.9	133.87	298.86	1409.3	127.84	259.78	1414.2	100.99	292.16	1400.8	100.52	231.6	1562.3	44.743	174.81	1602.8	40.811	282.09	1654.5	41.407	221.93	1781.8	1437.9	284.63	1736.4	1169.2	270.5
514	2.1375	2004.7	1141.2	284.44	1868.8	1382.7	429.32	1877.4	1387.3	126.61	1862.6	1686.1	269.13	1982.8	975.94	380.13	1948	976.24	133.11	1752.1	995.46	332.56	1749.4	1008.5	244.15	1917.6	884.96	461.89	1855	893.54	77.192	1890	1050.1	439.45	1838.3	1074.2	113.08	1729	969.26	284.47	2025.1	656.5	435.84	2130.4	604.53	382.83	2060.9	573.45	404.49	2089.6	679.91	413.45	2144.6	530.31	377	2132.3	515.42	256.29	2165.2	343.63	392.21	2253.8	324.18	377.76	2201.1	275.96	380.79	2214.6	386	389.38	2322.4	123.58	361.2	2340.5	157.46	277.72	2289.7	68.776	302.7	2321	56.392	273.28	2311.8	44.019	335.69	2435.9	136.75	400.06	2465.3	189.28	306.05	2483.4	227.21	355.47	1726.1	665.62	150.27	1774.1	547.83	145.03	1715.2	577.33	170.62	1785.9	633.91	120.55	1732.3	477.01	161.7	1771.6	485.13	288.93	1625.8	384.03	158.95	1634.1	275.3	178.01	1586.2	318.91	171.99	1672.9	342.39	165.65	1498.6	142.49	205.51	1509.7	135.54	298.73	1411.2	130.71	259.68	1415.7	103.9	292.16	1402.2	103.49	231.59	1562.8	45.136	174.75	1603.2	41.022	282.1	1654.8	41.338	221.93	1787.8	1437.1	285.19	1742.7	1168.4	270.96
515	2.1417	2011.1	1140.7	284.78	1874.9	1382	429.89	1883.4	1386.6	127.19	1868.3	1685.4	269.65	1989.9	975.59	380.1	1954	975.52	133.19	1758.9	994.71	333.44	1755.8	1007.7	245.06	1925.2	884.63	462.2	1860.5	892.9	77.677	1896.9	1049.6	439.8	1844.2	1073.3	113.61	1735.7	968.48	285.52	2032.6	656.05	435.62	2137.8	604.31	382.33	2068.5	573.1	404.06	2097.1	679.58	413.14	2152	529.85	376.39	2139.7	515.22	255.83	2170.5	342.77	391.7	2258.9	322.14	376.9	2205.4	274.61	380.4	2220.5	384.5	388.56	2324.7	120.82	360.62	2342.8	154.15	276.91	2291.4	66.303	302.37	2322.5	53.457	272.99	2313.3	41.473	335.47	2438.2	133.22	399.08	2468	185.08	305.02	2486.4	223.14	354.22	1731.5	665.26	150.79	1779	547.4	145.13	1720.5	576.95	171.01	1791.1	633.44	120.7	1737.2	476.64	161.78	1777	484.38	288.88	1630.1	384.7	159.02	1637.3	275.88	177.96	1589.8	319.99	171.97	1676.9	342.52	165.78	1500.5	144.36	205.44	1511.7	137.25	298.6	1413.1	133.66	259.6	1417.3	106.91	292.18	1403.8	106.56	231.59	1563.3	45.552	174.69	1603.7	41.224	282.1	1655	41.278	221.93	1793.8	1436.4	285.78	1748.9	1167.6	271.44
516	2.1458	2017.4	1140.2	285.13	1881.1	1381.3	430.46	1889.4	1386	127.78	1874.1	1684.7	270.19	1997	975.25	380.07	1960	974.82	133.25	1765.8	993.95	334.36	1762.4	1006.9	246	1932.9	884.3	462.51	1866	892.28	78.167	1903.9	1049.2	440.17	1850.1	1072.5	114.17	1742.4	967.71	286.61	2040	655.57	435.38	2145.2	604.02	381.86	2075.9	572.69	403.62	2104.5	679.17	412.85	2159.2	529.29	375.81	2147.1	514.95	255.39	2175.8	341.84	391.18	2263.8	320.06	376.04	2209.7	273.22	379.99	2226.3	382.94	387.75	2327	118.08	360.04	2345.1	150.83	276.09	2293	63.937	302.04	2323.9	50.596	272.7	2314.6	39.02	335.26	2440.5	129.67	398.13	2470.6	180.82	304	2489.3	219	352.96	1737.1	664.92	151.33	1784.1	546.98	145.19	1725.9	576.58	171.4	1796.3	632.99	120.84	1742.3	476.29	161.84	1782.6	483.61	288.8	1634.5	385.39	159.07	1640.6	276.49	177.9	1593.5	321.11	171.96	1681.1	342.68	165.86	1502.5	146.28	205.37	1513.8	139	298.47	1415.2	136.69	259.54	1419	109.99	292.21	1405.4	109.71	231.61	1563.8	45.989	174.63	1604.2	41.415	282.09	1655.3	41.229	221.93	1799.8	1435.6	286.39	1755.2	1166.8	271.95
517	2.15	2023.9	1139.7	285.49	1887.3	1380.7	431.04	1895.5	1385.4	128.38	1879.8	1684	270.72	2004.1	974.91	380.03	1966.2	974.14	133.32	1772.8	993.19	335.31	1769	1006.1	246.97	1940.7	883.97	462.82	1871.6	891.68	78.663	1911.1	1048.7	440.55	1856.1	1071.7	114.74	1749.2	966.93	287.72	2047.5	655.05	435.15	2152.6	603.62	381.41	2083.3	572.23	403.18	2111.9	678.69	412.57	2166.4	528.63	375.25	2154.3	514.61	254.96	2181	340.85	390.64	2268.6	317.93	375.19	2213.9	271.79	379.55	2232	381.32	386.94	2329.2	115.36	359.46	2347.3	147.51	275.26	2294.5	61.712	301.71	2325.2	47.841	272.42	2315.8	36.692	335.06	2442.7	126.12	397.2	2473.2	176.5	302.97	2492.1	214.82	351.71	1742.7	664.58	151.87	1789.2	546.56	145.2	1731.4	576.23	171.79	1801.6	632.55	120.94	1747.4	475.95	161.87	1788.3	482.82	288.67	1639	386.12	159.11	1644.1	277.14	177.81	1597.3	322.26	171.95	1685.2	342.88	165.9	1504.6	148.24	205.3	1516	140.78	298.34	1417.4	139.8	259.5	1420.8	113.16	292.26	1407.1	112.96	231.65	1564.3	46.447	174.57	1604.7	41.59	282.08	1655.6	41.189	221.92	1805.8	1434.8	287.02	1761.6	1165.9	272.48
518	2.1542	2030.4	1139.2	285.86	1893.5	1380.1	431.64	1901.5	1384.8	128.99	1885.6	1683.3	271.25	2011.4	974.56	379.98	1972.4	973.48	133.39	1779.8	992.44	336.28	1775.7	1005.3	247.97	1948.5	883.64	463.14	1877.3	891.1	79.161	1918.3	1048.3	440.93	1862.2	1070.9	115.33	1756.1	966.15	288.86	2054.9	654.5	434.91	2159.9	603.14	381	2090.7	571.72	402.74	2119.3	678.13	412.31	2173.5	527.89	374.73	2161.5	514.19	254.56	2186.1	339.82	390.08	2273.4	315.79	374.34	2218	270.33	379.09	2237.6	379.67	386.14	2331.4	112.7	358.87	2349.5	144.22	274.42	2295.9	59.658	301.37	2326.4	45.219	272.15	2316.8	34.518	334.87	2444.8	122.57	396.3	2475.7	172.14	301.95	2494.9	210.6	350.46	1748.5	664.26	152.43	1794.4	546.15	145.19	1737	575.88	172.18	1807	632.14	121.03	1752.5	475.63	161.88	1794.1	482	288.5	1643.6	386.87	159.15	1647.6	277.82	177.7	1601.2	323.44	171.94	1689.5	343.1	165.89	1506.8	150.25	205.22	1518.3	142.6	298.2	1419.7	142.97	259.48	1422.8	116.4	292.33	1409	116.3	231.71	1564.9	46.923	174.51	1605.2	41.746	282.05	1655.8	41.159	221.91	1811.9	1434	287.68	1768.1	1165.1	273.04
